<?xml version="1.0" standalone="no"?>
<!DOCTYPE svg PUBLIC "-//W3C//DTD SVG 20010904//EN"
 "http://www.w3.org/TR/2001/REC-SVG-20010904/DTD/svg10.dtd">
<svg version="1.0" xmlns="http://www.w3.org/2000/svg"
 width="260.000000pt" height="260.000000pt" viewBox="0 0 260.000000 260.000000"
 preserveAspectRatio="xMidYMid meet">
<metadata>
Created by potrace 1.11, written by Peter Selinger 2001-2013
</metadata>
<g transform="translate(0.000000,260.000000) scale(0.100000,-0.100000)"
fill="#000000" stroke="none">
<path d="M1711 1920 c-174 -27 -333 -158 -391 -322 -30 -87 -38 -241 -16 -326
51 -200 200 -339 398 -372 117 -20 261 6 341 62 l27 19 0 -35 0 -36 70 0 70 0
0 255 0 255 -160 0 -160 0 0 -60 0 -60 90 0 90 0 0 -90 0 -89 -52 -36 c-75
-50 -177 -71 -270 -56 -130 21 -218 86 -272 200 -29 62 -31 73 -31 181 0 109
2 118 32 180 17 36 38 72 45 80 128 146 369 165 512 39 50 -44 46 -45 115 13
37 32 34 40 -29 95 -95 82 -265 125 -409 103z"/>
<path d="M390 1410 l0 -500 70 0 70 0 2 371 3 372 250 -372 250 -371 73 0 72
0 0 500 0 500 -70 0 -70 0 -2 -380 -3 -380 -252 380 -252 380 -71 0 -70 0 0
-500z"/>
</g>
</svg>
